<svg xmlns="http://www.w3.org/2000/svg" xmlns:xlink="http://www.w3.org/1999/xlink" xml:space="preserve" width="105" height="105" viewBox="0 0 27.78 27.78"><path d="M2.79 14.69H2l.01-.04.32-1.55 1.98-.01h3.85l.01-.04c.03-.1.1-.5.1-.53 0-.02-.02-.03-.52-.03s-.52 0-.6-.03a.47.47 0 0 1-.18-.11.45.45 0 0 1-.14-.36 320.02 320.02 0 0 1 .6-3.23.82.82 0 0 1 .46-.57l.12-.06h2.75l.09.03c.17.06.3.22.3.41a116.75 116.75 0 0 1-.63 3.39.82.82 0 0 1-.41.46l-.13.07h-.56l-.55.01-.05.24-.06.3v.05h4.48l.06-.27.05-.3c.01-.02-.03-.02-.55-.03h-.57l-.09-.05a.46.46 0 0 1-.22-.24c-.07-.15-.07-.16.27-1.93.35-1.82.33-1.73.51-1.92a.75.75 0 0 1 .23-.16l.13-.06h2.8l.07.04c.1.06.19.14.23.24.07.16.07.13-.26 1.9-.18.93-.33 1.65-.35 1.7a.84.84 0 0 1-.48.45c-.1.03-.11.03-.61.03h-.51v.04c-.03.1-.1.5-.1.53 0 .02.06.03 2.2.02h2.2l.06-.29c.03-.15.05-.28.04-.29h-.51c-.57 0-.62-.01-.74-.11a.44.44 0 0 1-.18-.36 107.49 107.49 0 0 1 .63-3.37.81.81 0 0 1 .52-.5c.1-.04.14-.04 1.46-.03h1.37l.08.04c.16.09.25.23.26.41 0 .1-.04.34-.3 1.74-.3 1.52-.32 1.63-.37 1.74a.84.84 0 0 1-.45.4c-.05.02-.15.03-.62.03l-.55.01-.05.24-.05.3-.02.05h2.23a303.1 303.1 0 0 1 4.18 0l-.32 1.56v.04H16.1a20.1 20.1 0 0 1-.1.57c0 .01.1.02.51.02.5 0 .53 0 .61.03a.5.5 0 0 1 .26.24c.09.16.1.1-.24 1.85l-.33 1.69a.8.8 0 0 1-.43.49l-.13.06H14.9l-1.37.01-.1-.03a.5.5 0 0 1-.27-.27c-.06-.17-.06-.13.28-1.89.35-1.84.33-1.75.5-1.94a.7.7 0 0 1 .23-.17l.14-.06h.54l.56-.02.12-.57-2.2-.01H11.1l-.06.28-.06.3h.5c.49 0 .52.01.6.04a.5.5 0 0 1 .28.27c.06.17.06.13-.28 1.89-.35 1.84-.33 1.75-.5 1.93a.7.7 0 0 1-.24.18l-.13.06H9.85l-1.37.01-.1-.03a.5.5 0 0 1-.26-.24c-.08-.17-.08-.1.26-1.9l.34-1.71a.9.9 0 0 1 .24-.31c.03-.04.12-.09.18-.12l.12-.05h.57l.57-.02a23.17 23.17 0 0 1 .11-.56c0-.02-.38-.02-2.24-.02H3.2z" style="fill:#600090;fill-opacity:1"/><g transform="matrix(.26458 0 0 .26458 13.9 13.9)"><g mask="url(#a)"><circle r="43" fill="none" stroke="#000" stroke-width="9"/><path id="b" stroke="#000" stroke-linejoin="round" stroke-width="3" d="m46 3 5-3-5-3z"/><use xlink:href="#b" transform="rotate(11.25)"/><use xlink:href="#b" transform="rotate(22.5)"/><use xlink:href="#b" transform="rotate(33.75)"/><use xlink:href="#b" transform="rotate(45)"/><use xlink:href="#b" transform="rotate(56.25)"/><use xlink:href="#b" transform="rotate(67.5)"/><use xlink:href="#b" transform="rotate(78.75)"/><use xlink:href="#b" transform="rotate(90)"/><use xlink:href="#b" transform="rotate(101.25)"/><use xlink:href="#b" transform="rotate(112.5)"/><use xlink:href="#b" transform="rotate(123.75)"/><use xlink:href="#b" transform="rotate(135)"/><use xlink:href="#b" transform="rotate(146.25)"/><use xlink:href="#b" transform="rotate(157.5)"/><use xlink:href="#b" transform="rotate(168.75)"/><use xlink:href="#b" transform="scale(-1)"/><use xlink:href="#b" transform="rotate(-168.75)"/><use xlink:href="#b" transform="rotate(-157.5)"/><use xlink:href="#b" transform="rotate(-146.25)"/><use xlink:href="#b" transform="rotate(-135)"/><use xlink:href="#b" transform="rotate(-123.75)"/><use xlink:href="#b" transform="rotate(-112.5)"/><use xlink:href="#b" transform="rotate(-101.25)"/><use xlink:href="#b" transform="rotate(-90)"/><use xlink:href="#b" transform="rotate(-78.75)"/><use xlink:href="#b" transform="rotate(-67.5)"/><use xlink:href="#b" transform="rotate(-56.25)"/><use xlink:href="#b" transform="rotate(-45)"/><use xlink:href="#b" transform="rotate(-33.75)"/><use xlink:href="#b" transform="rotate(-22.5)"/><use xlink:href="#b" transform="rotate(-11.25)"/><path id="c" stroke="#000" stroke-linejoin="round" stroke-width="6" d="m-7-42 7 7 7-7z"/><use xlink:href="#c" transform="rotate(72)"/><use xlink:href="#c" transform="rotate(144)"/><use xlink:href="#c" transform="rotate(-144)"/><use xlink:href="#c" transform="rotate(-72)"/></g><mask id="a"><path fill="#fff" d="M-60-60H60V60H-60z"/><circle id="d" cx="0" cy="-40" r="3"/><use xlink:href="#d" transform="rotate(72)"/><use xlink:href="#d" transform="rotate(144)"/><use xlink:href="#d" transform="rotate(-144)"/><use xlink:href="#d" transform="rotate(-72)"/></mask></g></svg>