<svg xmlns="http://www.w3.org/2000/svg" xmlns:xlink="http://www.w3.org/1999/xlink" xml:space="preserve" width="1000" height="280" viewBox="0 0 264.58 74.08"><path d="M2.79 14.69H2l.01-.04.32-1.55 1.98-.01h3.85l.01-.04c.03-.1.1-.5.1-.53 0-.02-.02-.03-.52-.03s-.52 0-.6-.03a.47.47 0 0 1-.18-.11.45.45 0 0 1-.14-.36 320.02 320.02 0 0 1 .6-3.23.82.82 0 0 1 .46-.57l.12-.06h2.75l.09.03c.17.06.3.22.3.41a116.75 116.75 0 0 1-.63 3.39.82.82 0 0 1-.41.46l-.13.07h-.56l-.55.01-.05.24-.06.3v.05h4.48l.06-.27.05-.3c.01-.02-.03-.02-.55-.03h-.57l-.09-.05a.46.46 0 0 1-.22-.24c-.07-.15-.07-.16.27-1.93.35-1.82.33-1.73.51-1.92a.75.75 0 0 1 .23-.16l.13-.06h2.8l.07.04c.1.06.19.14.23.24.07.16.07.13-.26 1.9a41.2 41.2 0 0 1-.35 1.7.84.84 0 0 1-.48.45c-.1.03-.11.03-.61.03h-.51v.04c-.03.1-.1.5-.1.53 0 .02.06.03 2.2.02h2.2l.06-.29c.03-.15.05-.28.04-.29h-.51c-.57 0-.62-.01-.74-.11a.44.44 0 0 1-.18-.36 107.49 107.49 0 0 1 .63-3.37.81.81 0 0 1 .52-.5c.1-.04.14-.04 1.46-.03h1.37l.08.04c.16.09.25.23.26.41 0 .1-.04.34-.3 1.74-.3 1.52-.32 1.63-.37 1.74a.84.84 0 0 1-.45.4c-.05.02-.15.03-.62.03l-.55.01-.05.24-.05.3-.02.05h2.23a303.1 303.1 0 0 1 4.18 0l-.32 1.56v.04H16.1a20.1 20.1 0 0 1-.1.57c0 .01.1.02.51.02.5 0 .53 0 .61.03a.5.5 0 0 1 .26.24c.09.16.1.1-.24 1.85l-.33 1.69a.8.8 0 0 1-.43.49l-.13.06H14.9l-1.37.01-.1-.03a.5.5 0 0 1-.27-.27c-.06-.17-.06-.13.28-1.89.35-1.84.33-1.75.5-1.94a.7.7 0 0 1 .23-.17l.14-.06h.54l.56-.02.12-.57-2.2-.01H11.1l-.06.28-.06.3h.5c.49 0 .52.01.6.04a.5.5 0 0 1 .28.27c.06.17.06.13-.28 1.89-.35 1.84-.33 1.75-.5 1.93a.7.7 0 0 1-.24.18l-.13.06H9.85l-1.37.01-.1-.03a.5.5 0 0 1-.26-.24c-.08-.17-.08-.1.26-1.9l.34-1.71a.9.9 0 0 1 .24-.31.63.63 0 0 1 .18-.12l.12-.05h.57l.57-.02a23.17 23.17 0 0 1 .11-.56c0-.02-.38-.02-2.24-.02H3.2Z" style="fill:#600090;fill-opacity:1" transform="translate(30.37 4.95) scale(2.309)"/><g transform="matrix(.61 0 0 .61 62.47 37.04)"><g mask="url(#a)"><circle r="43" fill="none" stroke="#000" stroke-width="9"/><path id="b" stroke="#000" stroke-linejoin="round" stroke-width="3" d="m46 3 5-3-5-3Z"/><use xlink:href="#b" transform="rotate(11.3)"/><use xlink:href="#b" transform="rotate(22.5)"/><use xlink:href="#b" transform="rotate(33.8)"/><use xlink:href="#b" transform="rotate(45)"/><use xlink:href="#b" transform="rotate(56.3)"/><use xlink:href="#b" transform="rotate(67.5)"/><use xlink:href="#b" transform="rotate(78.8)"/><use xlink:href="#b" transform="rotate(90)"/><use xlink:href="#b" transform="rotate(101.3)"/><use xlink:href="#b" transform="rotate(112.5)"/><use xlink:href="#b" transform="rotate(123.8)"/><use xlink:href="#b" transform="rotate(135)"/><use xlink:href="#b" transform="rotate(146.3)"/><use xlink:href="#b" transform="rotate(157.5)"/><use xlink:href="#b" transform="rotate(168.8)"/><use xlink:href="#b" transform="scale(-1)"/><use xlink:href="#b" transform="rotate(-168.8)"/><use xlink:href="#b" transform="rotate(-157.5)"/><use xlink:href="#b" transform="rotate(-146.3)"/><use xlink:href="#b" transform="rotate(-135)"/><use xlink:href="#b" transform="rotate(-123.8)"/><use xlink:href="#b" transform="rotate(-112.5)"/><use xlink:href="#b" transform="rotate(-101.3)"/><use xlink:href="#b" transform="rotate(-90)"/><use xlink:href="#b" transform="rotate(-78.8)"/><use xlink:href="#b" transform="rotate(-67.5)"/><use xlink:href="#b" transform="rotate(-56.3)"/><use xlink:href="#b" transform="rotate(-45)"/><use xlink:href="#b" transform="rotate(-33.8)"/><use xlink:href="#b" transform="rotate(-22.5)"/><use xlink:href="#b" transform="rotate(-11.3)"/><path id="c" stroke="#000" stroke-linejoin="round" stroke-width="6" d="m-7-42 7 7 7-7z"/><use xlink:href="#c" transform="rotate(72)"/><use xlink:href="#c" transform="rotate(144)"/><use xlink:href="#c" transform="rotate(-144)"/><use xlink:href="#c" transform="rotate(-72)"/></g><mask id="a"><path fill="#fff" d="M-60-60H60V60H-60Z"/><circle id="d" cx="0" cy="-40" r="3"/><use xlink:href="#d" transform="rotate(72)"/><use xlink:href="#d" transform="rotate(144)"/><use xlink:href="#d" transform="rotate(-144)"/><use xlink:href="#d" transform="rotate(-72)"/></mask></g><path d="M105.12 36.06q.16 0 .3-.07.14-.08.26-.22.18-.19.23-.5l.56-3.14q.06-.38-.1-.6-.1-.11-.22-.16t-.27-.05h-1.86l-.84 4.74zm-2.74-5.55q.09-.51.46-.77.28-.2.68-.2h2.78q.98 0 1.6.82.55.73.38 1.73l-.54 3.03q-.2 1.15-.92 1.84-.9.87-1.96.87h-1.99l-.4 2.25q-.06.4-.28.66-.18.2-.43.3-.18.06-.39.06-.2 0-.35-.07-.2-.1-.29-.32-.1-.26-.03-.66zm7.32-.07q.09-.5.46-.76.29-.2.68-.2h3.12q.38 0 .6.16.17.13.22.36.03.15 0 .35l-.19 1.05q-.06.38-.25.61-.17.2-.4.29-.17.06-.35.06-.38 0-.6-.18-.27-.25-.18-.74l.03-.17h-1.5l-.98 5.6q-.07.39-.3.62-.3.32-.78.32-.2 0-.35-.06-.2-.09-.3-.28-.13-.24-.06-.62zm7.36 2.15-.39 2.2q-.06.34.08.6.1.22.36.4.34.23.68.23.35 0 .77-.25.33-.2.52-.53.17-.28.23-.67l.33-1.83q.13-.74-.22-1.12-.35-.38-.8-.38-.43 0-.96.33-.48.32-.6 1.02zm1.76-3.12q1.36 0 2.07.86.76.9.57 1.95l-.44 2.5q-.24 1.37-1.38 2.24-1 .75-2.2.75-1.3 0-1.93-.8-.8-.98-.59-2.23l.42-2.34q.13-.74.6-1.36.36-.48.93-.9.95-.67 1.95-.67zm9.1-3.26q.37 0 .57.18.27.23.18.72-.08.48-.45.71-.28.18-.66.18h-.32q-.35 0-.66.22-.17.12-.26.27-.08.14-.11.32l-.12.67h1.2q.38 0 .6.17.17.14.22.37.03.16 0 .36-.04.19-.13.35-.13.22-.35.36-.28.15-.66.15h-1.2l-1 5.65q-.08.48-.43.72-.27.2-.65.2-.19 0-.33-.07-.2-.09-.3-.3-.11-.23-.05-.6l.99-5.6h-.22q-.46 0-.63-.3-.13-.23-.07-.59.08-.45.42-.7.26-.17.62-.17h.19l.13-.72q.18-1.06 1.01-1.74.98-.81 1.95-.81zm3.38 4.22-1.13 6.4q-.07.38-.27.62-.17.2-.42.29-.17.05-.36.05-.48 0-.67-.33-.13-.23-.07-.61l1.13-6.4q.07-.39.28-.63.18-.19.43-.28.16-.05.36-.05.19 0 .34.05.21.09.32.28.13.24.06.61zm-1.18-3.33q.06-.35.28-.58.28-.29.74-.29.47 0 .65.3.15.24.08.6l-.08.47q-.06.37-.3.61-.3.32-.76.32t-.64-.31q-.12-.23-.06-.58zm2.45 3.34q.1-.5.47-.76.28-.2.68-.2h3.12q.38 0 .59.16.18.13.22.36.04.15 0 .35l-.18 1.05q-.07.38-.26.61-.16.2-.4.29-.16.06-.35.06-.38 0-.59-.18-.27-.25-.19-.74l.03-.17h-1.49l-.99 5.6q-.06.39-.3.62-.3.32-.78.32-.2 0-.34-.06-.2-.09-.3-.28-.13-.24-.07-.62zm5.98.06q.07-.39.27-.63.17-.21.41-.3.17-.06.37-.06.2 0 .35.06.21.1.3.3.12.26.05.64l-.84 4.77q-.06.34.11.54.2.22.47.22h1.88l.99-5.57q.06-.37.28-.61.3-.32.78-.32.2 0 .34.05.2.1.3.28.13.24.07.61l-1.13 6.4q-.07.38-.3.62-.29.33-.77.33h-2.82q-1.02 0-1.62-.79-.52-.69-.34-1.74zm12.56.36q-.07.36-.27.6-.17.19-.4.26-.17.06-.36.06-.19 0-.51-.13-.96-.4-1.69-.4-.33 0-.51.1-.17.12-.22.42-.03.15.03.25.07.1.22.18l2.42 1.24q.56.27.82.7.35.58.2 1.37-.1.63-.51 1.15-.32.4-.81.75-.6.4-1.37.4-1.39 0-3.03-.57-.49-.17-.57-.56-.02-.13 0-.3.07-.34.26-.57.17-.18.4-.26.16-.06.34-.06.35 0 .68.14.95.4 2.08.4.32 0 .45-.09.15-.08.2-.18.08-.12.1-.25.03-.14-.07-.26-.08-.11-.3-.23l-2.33-1.2q-.68-.36-.9-.99-.2-.5-.08-1.15.16-.87.88-1.51.78-.7 1.8-.7 1.64 0 2.65.6.2.11.3.27.15.23.1.52zm2.7-3.69q.06-.37.3-.6.3-.31.76-.31.2 0 .34.06.2.08.3.28.12.23.06.6l-.41 2.34h1.27q.38 0 .59.2.26.23.18.72-.04.19-.13.34-.12.21-.34.34-.26.15-.62.15h-1.26l-1 5.62q-.06.37-.27.6-.3.32-.77.32-.19 0-.34-.06-.21-.1-.31-.29-.13-.24-.06-.62l.98-5.57h-.17q-.36 0-.56-.17-.27-.24-.19-.7.08-.47.43-.7.26-.18.62-.18h.18z" aria-label="profirust" style="font-size:10.5833px;line-height:1.25;font-family:osifont;-inkscape-font-specification:osifont;text-align:center;letter-spacing:0;word-spacing:0;text-anchor:middle;fill:#600090;fill-opacity:1;stroke-width:.367267" transform="matrix(2.309 0 0 2.309 -128.81 -40.66)"/></svg>
